<?xml version="1.0" encoding="utf-8"?>
<!-- Generator: Adobe Illustrator 21.0.0, SVG Export Plug-In . SVG Version: 6.00 Build 0)  -->
<svg version="1.1" xmlns="http://www.w3.org/2000/svg" xmlns:xlink="http://www.w3.org/1999/xlink" x="0px" y="0px"
	 viewBox="0 0 1920 1080" style="enable-background:new 0 0 1920 1080;" xml:space="preserve">
<style type="text/css">
	.st0{clip-path:url(#SVGID_2_);fill:url(#SVGID_3_);}
	.st1{filter:url(#Adobe_OpacityMaskFilter);}
	.st2{clip-path:url(#SVGID_2_);fill:url(#SVGID_5_);}
	.st3{clip-path:url(#SVGID_2_);mask:url(#SVGID_4_);}
	.st4{opacity:0.5;clip-path:url(#SVGID_7_);fill:url(#SVGID_8_);}
	.st5{clip-path:url(#SVGID_7_);}
	.st6{fill:#942394;}
	.st7{filter:url(#Adobe_OpacityMaskFilter_1_);}
	.st8{clip-path:url(#SVGID_2_);fill:url(#SVGID_10_);}
	.st9{clip-path:url(#SVGID_2_);mask:url(#SVGID_9_);}
	.st10{opacity:0.5;clip-path:url(#SVGID_12_);fill:url(#SVGID_13_);}
	.st11{clip-path:url(#SVGID_12_);}
</style>
<g id="Background">
</g>
<g id="Object">
	<g>
		<defs>
			<rect id="SVGID_1_" x="0" width="1920" height="1080"/>
		</defs>
		<clipPath id="SVGID_2_">
			<use xlink:href="#SVGID_1_"  style="overflow:visible;"/>
		</clipPath>
		<linearGradient id="SVGID_3_" gradientUnits="userSpaceOnUse" x1="960" y1="-86.3701" x2="960" y2="1186.173">
			<stop  offset="0" style="stop-color:#0C044D"/>
			<stop  offset="0.5" style="stop-color:#140936"/>
			<stop  offset="0.7117" style="stop-color:#12083C"/>
			<stop  offset="0.9882" style="stop-color:#0C044C"/>
			<stop  offset="1" style="stop-color:#0C044D"/>
		</linearGradient>
		<polygon class="st0" points="1932.2,-81.2 -12.2,-81.2 -12.2,1215.1 1932.1,1215.1 		"/>
		<defs>
			<filter id="Adobe_OpacityMaskFilter" filterUnits="userSpaceOnUse" x="-1322.3" y="799.2" width="4564.6" height="651.8">
				<feColorMatrix  type="matrix" values="1 0 0 0 0  0 1 0 0 0  0 0 1 0 0  0 0 0 1 0"/>
			</filter>
		</defs>
		<mask maskUnits="userSpaceOnUse" x="-1322.3" y="799.2" width="4564.6" height="651.8" id="SVGID_4_">
			<g class="st1">
				<linearGradient id="SVGID_5_" gradientUnits="userSpaceOnUse" x1="960" y1="1216.5818" x2="960" y2="858.6791">
					<stop  offset="0" style="stop-color:#FFFFFF"/>
					<stop  offset="5.699124e-02" style="stop-color:#E4E4E4"/>
					<stop  offset="0.1952" style="stop-color:#A9A9A9"/>
					<stop  offset="0.3331" style="stop-color:#757575"/>
					<stop  offset="0.4671" style="stop-color:#4B4B4B"/>
					<stop  offset="0.5967" style="stop-color:#2A2A2A"/>
					<stop  offset="0.7206" style="stop-color:#131313"/>
					<stop  offset="0.8364" style="stop-color:#050505"/>
					<stop  offset="0.936" style="stop-color:#000000"/>
				</linearGradient>
				<rect x="-12.2" y="850.5" class="st2" width="1944.5" height="364.6"/>
			</g>
		</mask>
		<g class="st3">
			<g>
				<defs>
					<rect id="SVGID_6_" x="-12.2" y="799.2" width="1944.5" height="416"/>
				</defs>
				<clipPath id="SVGID_7_">
					<use xlink:href="#SVGID_6_"  style="overflow:visible;"/>
				</clipPath>
				
					<radialGradient id="SVGID_8_" cx="1217.884" cy="1864.4263" r="198.403" gradientTransform="matrix(3.0647 0 0 1.0059 -2760.9087 -659.0014)" gradientUnits="userSpaceOnUse">
					<stop  offset="0" style="stop-color:#AD2CA2"/>
					<stop  offset="1" style="stop-color:#000000"/>
				</radialGradient>
				<ellipse class="st4" cx="960" cy="1202.6" rx="638.7" ry="209.6"/>
				<g class="st5">
					<g>
						<path class="st6" d="M3242.3,1451h-4564.6L-8.9,900h1937.8l0.5,0.2L3242.3,1451z M-1298.2,1446.1h4516.3L1927.9,904.8H-7.9
							L-1298.2,1446.1z"/>
					</g>
					<g>
						<rect x="-67.3" y="924.7" class="st6" width="2054.6" height="4.9"/>
					</g>
					<g>
						<rect x="-133.8" y="952.6" class="st6" width="2187.7" height="4.9"/>
					</g>
					<g>
						<rect x="-209.6" y="984.4" class="st6" width="2339.2" height="4.9"/>
					</g>
					<g>
						<rect x="-296.6" y="1020.9" class="st6" width="2513.3" height="4.9"/>
					</g>
					<g>
						<rect x="-397.7" y="1063.3" class="st6" width="2715.3" height="4.9"/>
					</g>
					<g>
						<rect x="-516.4" y="1113.1" class="st6" width="2952.7" height="4.9"/>
					</g>
					<g>
						<rect x="-657.8" y="1172.4" class="st6" width="3235.6" height="4.9"/>
					</g>
					<g>
						<rect x="-829.2" y="1244.3" class="st6" width="3578.4" height="4.9"/>
					</g>
					<g>
						<rect x="-1041.2" y="1333.2" class="st6" width="4002.4" height="4.9"/>
					</g>
					<g>
						
							<rect x="-923.4" y="1173" transform="matrix(0.8855 -0.4646 0.4646 0.8855 -584.521 -21.2865)" class="st6" width="1176" height="4.9"/>
					</g>
					<g>
						
							<rect x="-488.1" y="1173" transform="matrix(0.8196 -0.5729 0.5729 0.8196 -675.5193 205.386)" class="st6" width="953.1" height="4.9"/>
					</g>
					<g>
						
							<rect x="-65" y="1173" transform="matrix(0.6901 -0.7237 0.7237 0.6901 -753.8961 590.2137)" class="st6" width="754.6" height="4.9"/>
					</g>
					<g>
						
							<rect x="333.6" y="1173" transform="matrix(0.4303 -0.9027 0.9027 0.4303 -698.6734 1243.843)" class="st6" width="605" height="4.9"/>
					</g>
					<g>
						<rect x="957.6" y="902.4" class="st6" width="4.9" height="546.1"/>
					</g>
					<g>
						
							<rect x="1281.4" y="873" transform="matrix(0.9027 -0.4303 0.4303 0.9027 -380.8929 666.9262)" class="st6" width="4.9" height="605"/>
					</g>
					<g>
						
							<rect x="1605.3" y="798.2" transform="matrix(0.7237 -0.6901 0.6901 0.7237 -367.0033 1434.2122)" class="st6" width="4.9" height="754.6"/>
					</g>
					<g>
						
							<rect x="1929.2" y="698.9" transform="matrix(0.573 -0.8196 0.8196 0.573 -138.5781 2084.9536)" class="st6" width="4.9" height="953.1"/>
					</g>
					<g>
						
							<rect x="2253" y="587.5" transform="matrix(0.4644 -0.8856 0.8856 0.4644 166.9942 2627.0627)" class="st6" width="4.9" height="1176"/>
					</g>
				</g>
			</g>
		</g>
		<defs>
			<filter id="Adobe_OpacityMaskFilter_1_" filterUnits="userSpaceOnUse" x="-1322.3" y="-317" width="4564.6" height="651.8">
				<feColorMatrix  type="matrix" values="1 0 0 0 0  0 1 0 0 0  0 0 1 0 0  0 0 0 1 0"/>
			</filter>
		</defs>
		<mask maskUnits="userSpaceOnUse" x="-1322.3" y="-317" width="4564.6" height="651.8" id="SVGID_9_">
			<g class="st7">
				
					<linearGradient id="SVGID_10_" gradientUnits="userSpaceOnUse" x1="960" y1="1705.9395" x2="960" y2="1348.0367" gradientTransform="matrix(-1 0 0 -1 1920 1623.3)">
					<stop  offset="0" style="stop-color:#FFFFFF"/>
					<stop  offset="5.699124e-02" style="stop-color:#E4E4E4"/>
					<stop  offset="0.1952" style="stop-color:#A9A9A9"/>
					<stop  offset="0.3331" style="stop-color:#757575"/>
					<stop  offset="0.4671" style="stop-color:#4B4B4B"/>
					<stop  offset="0.5967" style="stop-color:#2A2A2A"/>
					<stop  offset="0.7206" style="stop-color:#131313"/>
					<stop  offset="0.8364" style="stop-color:#050505"/>
					<stop  offset="0.936" style="stop-color:#000000"/>
				</linearGradient>
				<polygon class="st8" points="-12.2,-81.2 1932.2,-81.2 1932.2,283.4 -12.2,283.4 				"/>
			</g>
		</mask>
		<g class="st9">
			<g>
				<defs>
					
						<rect id="SVGID_11_" x="-12.2" y="-81.2" transform="matrix(-1 -1.224647e-16 1.224647e-16 -1 1920 253.5914)" width="1944.5" height="416"/>
				</defs>
				<clipPath id="SVGID_12_">
					<use xlink:href="#SVGID_11_"  style="overflow:visible;"/>
				</clipPath>
				
					<radialGradient id="SVGID_13_" cx="1217.884" cy="2350.9136" r="198.403" gradientTransform="matrix(-3.0647 0 0 -1.0059 4680.9087 2282.3015)" gradientUnits="userSpaceOnUse">
					<stop  offset="0" style="stop-color:#AD2CA2"/>
					<stop  offset="1" style="stop-color:#000000"/>
				</radialGradient>
				<ellipse class="st10" cx="960" cy="-68.7" rx="638.7" ry="209.6"/>
				<g class="st11">
					<g>
						<path class="st6" d="M-1322.3-317h4564.6L1928.9,234H-8.9l-0.5-0.2L-1322.3-317z M3218.2-312.2h-4516.3L-7.9,229.1h1935.8
							L3218.2-312.2z"/>
					</g>
					<g>
						<rect x="-67.3" y="204.4" class="st6" width="2054.6" height="4.9"/>
					</g>
					<g>
						<rect x="-133.8" y="176.5" class="st6" width="2187.7" height="4.9"/>
					</g>
					<g>
						<rect x="-209.6" y="144.7" class="st6" width="2339.2" height="4.9"/>
					</g>
					<g>
						<rect x="-296.6" y="108.2" class="st6" width="2513.3" height="4.9"/>
					</g>
					<g>
						<rect x="-397.7" y="65.8" class="st6" width="2715.3" height="4.9"/>
					</g>
					<g>
						<rect x="-516.4" y="16" class="st6" width="2952.7" height="4.9"/>
					</g>
					<g>
						<rect x="-657.8" y="-43.3" class="st6" width="3235.6" height="4.9"/>
					</g>
					<g>
						<rect x="-829.2" y="-115.2" class="st6" width="3578.4" height="4.9"/>
					</g>
					<g>
						<rect x="-1041.2" y="-204.2" class="st6" width="4002.4" height="4.9"/>
					</g>
					<g>
						
							<rect x="1667.5" y="-44" transform="matrix(0.8855 -0.4646 0.4646 0.8855 277.4921 1043.1249)" class="st6" width="1176" height="4.9"/>
					</g>
					<g>
						
							<rect x="1455" y="-44" transform="matrix(0.8196 -0.5729 0.5729 0.8196 372.2038 1099.1246)" class="st6" width="953.1" height="4.9"/>
					</g>
					<g>
						
							<rect x="1230.4" y="-44" transform="matrix(0.6901 -0.7237 0.7237 0.6901 528.2203 1150.6064)" class="st6" width="754.6" height="4.9"/>
					</g>
					<g>
						
							<rect x="981.4" y="-44" transform="matrix(0.4303 -0.9027 0.9027 0.4303 768.8558 1135.2499)" class="st6" width="605" height="4.9"/>
					</g>
					<g>
						<rect x="957.6" y="-314.6" class="st6" width="4.9" height="546.1"/>
					</g>
					<g>
						
							<rect x="633.7" y="-344" transform="matrix(0.9027 -0.4303 0.4303 0.9027 79.7898 269.7186)" class="st6" width="4.9" height="605"/>
					</g>
					<g>
						
							<rect x="309.8" y="-418.8" transform="matrix(0.7237 -0.6901 0.6901 0.7237 114.9273 204.0229)" class="st6" width="4.9" height="754.6"/>
					</g>
					<g>
						
							<rect x="-14" y="-518.1" transform="matrix(0.573 -0.8196 0.8196 0.573 29.0823 -27.2297)" class="st6" width="4.9" height="953.1"/>
					</g>
					<g>
						
							<rect x="-337.9" y="-629.5" transform="matrix(0.4644 -0.8856 0.8856 0.4644 -142.8937 -319.3273)" class="st6" width="4.9" height="1176"/>
					</g>
				</g>
			</g>
		</g>
	</g>
</g>
</svg>
