<svg width="418" height="120" viewBox="0 0 418 120" fill="none" xmlns="http://www.w3.org/2000/svg">
<path d="M72.7143 59.7092L52.2259 95.828L38.5138 120H0V119.976L18.0867 88.0856L34.176 59.7092L18.0867 31.5994L0 0.0121163V0H38.5383L52.2749 24.0024L72.7143 59.7092Z" fill="white"/>
<path d="M141.951 35.9976C140.064 31.7084 137.674 27.6858 134.868 23.9903C131.327 19.3255 127.111 15.1939 122.369 11.7286C118.632 9.00242 114.564 6.67609 110.238 4.83441C102.898 1.73263 94.8103 0 86.3184 0H50.1451L63.8816 24.0024H85.963C95.2882 24.0024 103.792 27.4677 110.238 33.1745C111.243 34.059 112.199 35.004 113.105 36.0097C118.865 42.3708 122.381 50.7916 122.381 60C122.381 69.2205 118.877 77.6292 113.118 84.0024C112.664 84.4992 112.199 84.9838 111.721 85.4564C111.243 85.9289 110.753 86.3893 110.25 86.8376C103.805 92.5444 95.3005 96.0097 85.9753 96.0097H63.8449V95.8401L50.1328 120H86.3307C94.8226 120 102.91 118.267 110.25 115.153C114.576 113.324 118.644 110.998 122.381 108.259C124.808 106.49 127.099 104.527 129.231 102.431C129.66 102.007 130.065 101.595 130.481 101.159C132.037 99.5234 133.508 97.8029 134.88 95.9976C137.307 92.7989 139.427 89.3457 141.179 85.6987C141.412 85.1414 141.743 84.5719 141.951 84.0024C145.198 76.6599 146.999 68.542 146.999 60C146.999 51.4701 145.198 43.3522 141.951 35.9976Z" fill="white"/>
<path d="M89.6855 67.4755H111.804C110.505 71.583 108.213 75.2542 105.211 78.2348C100.408 82.9844 93.7783 85.9408 86.475 85.9408H69.5525C54.9704 85.9408 43.0352 74.1395 43.0352 59.7211C43.0352 52.5119 46.0251 45.9569 50.8286 41.1952C55.6321 36.4335 62.2614 33.4893 69.5647 33.4893H86.4873C98.349 33.4893 108.446 41.28 111.816 51.9545H89.6855C87.5289 51.9545 85.5682 52.8269 84.1345 54.2324C82.7131 55.6379 81.8308 57.5765 81.8308 59.7211C81.8308 63.9739 85.3599 67.4755 89.6855 67.4755Z" fill="#B6F214"/>
<path d="M170.999 67.3442V24H188.929C193.497 24 197.382 24.7793 200.584 26.3378C203.786 27.8963 206.241 30.2763 207.949 33.4776C209.699 36.6368 210.574 40.7016 210.574 45.6721C210.574 50.6005 209.699 54.6653 207.949 57.8666C206.241 61.068 203.786 63.4479 200.584 65.0064C197.382 66.565 193.497 67.3442 188.929 67.3442H170.999ZM180.541 59.5726H188.865C190.787 59.5726 192.494 59.2988 193.988 58.7512C195.483 58.2036 196.721 57.4033 197.703 56.3502C198.684 55.255 199.432 53.9071 199.944 52.3064C200.456 50.6637 200.712 48.7681 200.712 46.6199V44.7244C200.712 42.5761 200.456 40.7016 199.944 39.101C199.432 37.4582 198.684 36.1103 197.703 35.0572C196.721 33.962 195.483 33.1406 193.988 32.593C192.494 32.0033 190.787 31.7085 188.865 31.7085H180.541V59.5726Z" fill="white"/>
<path d="M226.472 68.1024C225.362 68.1024 224.166 67.9761 222.886 67.7233C221.648 67.4706 220.474 67.0283 219.364 66.3965C218.254 65.7225 217.336 64.7748 216.61 63.5532C215.927 62.2895 215.585 60.6889 215.585 58.7512C215.585 56.4345 216.098 54.5179 217.122 53.0015C218.147 51.485 219.598 50.3056 221.477 49.4632C223.398 48.5786 225.682 47.9678 228.329 47.6308C230.976 47.2938 233.9 47.1254 237.102 47.1254V44.6612C237.102 43.6924 236.931 42.8499 236.59 42.1338C236.291 41.4177 235.736 40.8491 234.925 40.4278C234.156 40.0066 233.068 39.796 231.659 39.796C230.25 39.796 229.097 39.9645 228.201 40.3015C227.347 40.6385 226.728 41.0807 226.344 41.6283C226.002 42.1338 225.831 42.7025 225.831 43.3343V44.0925H217.186C217.144 43.8819 217.122 43.6924 217.122 43.5239C217.122 43.3132 217.122 43.0605 217.122 42.7657C217.122 40.828 217.72 39.1642 218.915 37.7741C220.111 36.3419 221.797 35.2468 223.974 34.4885C226.152 33.7303 228.692 33.3512 231.595 33.3512C234.711 33.3512 237.315 33.7514 239.407 34.5517C241.542 35.3521 243.164 36.5315 244.274 38.09C245.427 39.6486 246.003 41.6073 246.003 43.9662V59.0671C246.003 59.8253 246.217 60.394 246.643 60.7731C247.113 61.1101 247.625 61.2786 248.18 61.2786H250.294V67.0283C249.867 67.2389 249.205 67.4495 248.308 67.6602C247.412 67.9129 246.323 68.0393 245.043 68.0393C243.805 68.0393 242.695 67.8497 241.713 67.4706C240.773 67.1336 239.984 66.6492 239.343 66.0174C238.703 65.3434 238.255 64.5431 237.998 63.6164H237.55C236.824 64.501 235.928 65.2802 234.861 65.9542C233.836 66.6282 232.619 67.1547 231.211 67.5338C229.844 67.9129 228.265 68.1024 226.472 68.1024ZM229.482 61.4681C230.677 61.4681 231.744 61.2996 232.683 60.9626C233.623 60.5835 234.412 60.0991 235.053 59.5094C235.693 58.8776 236.184 58.1194 236.526 57.2348C236.91 56.3502 237.102 55.4025 237.102 54.3915V52.5592C234.711 52.5592 232.577 52.7277 230.698 53.0646C228.82 53.3595 227.326 53.886 226.216 54.6442C225.148 55.4025 224.615 56.4555 224.615 57.8034C224.615 58.5617 224.807 59.2146 225.191 59.7622C225.575 60.3097 226.13 60.731 226.856 61.0258C227.582 61.3207 228.457 61.4681 229.482 61.4681Z" fill="white"/>
<path d="M254.717 67.3442V34.1094H262.081L262.786 38.6587H263.234C263.96 37.5635 264.814 36.6157 265.796 35.8154C266.82 35.0151 267.952 34.4043 269.19 33.9831C270.47 33.5618 271.836 33.3512 273.288 33.3512C275.423 33.3512 277.258 33.7725 278.795 34.6149C280.375 35.4574 281.591 36.8053 282.445 38.6587H282.894C283.619 37.5635 284.495 36.6157 285.519 35.8154C286.544 35.0151 287.718 34.4043 289.041 33.9831C290.365 33.5618 291.773 33.3512 293.268 33.3512C295.402 33.3512 297.238 33.7303 298.775 34.4885C300.354 35.2468 301.592 36.4894 302.489 38.2164C303.385 39.9013 303.834 42.0917 303.834 44.7875V67.3442H294.933V46.3671C294.933 45.3141 294.804 44.4295 294.548 43.7134C294.335 42.9552 294.015 42.3655 293.588 41.9443C293.161 41.4809 292.627 41.1439 291.987 40.9333C291.346 40.7227 290.663 40.6174 289.938 40.6174C288.742 40.6174 287.675 40.9333 286.736 41.5652C285.797 42.197 285.049 43.0605 284.495 44.1557C283.982 45.2509 283.726 46.5146 283.726 47.9467V67.3442H274.825V46.3671C274.825 45.3141 274.697 44.4295 274.441 43.7134C274.227 42.9552 273.907 42.3655 273.48 41.9443C273.053 41.4809 272.52 41.1439 271.879 40.9333C271.281 40.7227 270.598 40.6174 269.83 40.6174C268.677 40.6174 267.61 40.9333 266.628 41.5652C265.689 42.197 264.942 43.0605 264.387 44.1557C263.875 45.2509 263.618 46.5146 263.618 47.9467V67.3442H254.717Z" fill="white"/>
<path d="M325.39 68.1024C323.042 68.1024 320.929 67.8497 319.051 67.3442C317.172 66.8388 315.571 66.1437 314.248 65.2592C312.924 64.3325 311.9 63.2373 311.174 61.9736C310.491 60.7099 310.149 59.2777 310.149 57.6771C310.149 57.5086 310.149 57.3401 310.149 57.1716C310.149 57.0031 310.171 56.8768 310.213 56.7925H318.794C318.794 56.8768 318.794 56.961 318.794 57.0452C318.794 57.1295 318.794 57.2137 318.794 57.298C318.837 58.351 319.179 59.2146 319.819 59.8885C320.459 60.5204 321.292 60.9837 322.316 61.2786C323.384 61.5734 324.494 61.7209 325.646 61.7209C326.671 61.7209 327.653 61.6366 328.592 61.4681C329.574 61.2575 330.385 60.8995 331.026 60.394C331.709 59.8885 332.05 59.2356 332.05 58.4353C332.05 57.4243 331.623 56.6451 330.769 56.0975C329.958 55.5499 328.87 55.1076 327.504 54.7706C326.18 54.4336 324.729 54.0545 323.149 53.6333C321.697 53.2963 320.246 52.9172 318.794 52.496C317.343 52.0326 316.019 51.4429 314.824 50.7268C313.671 50.0108 312.732 49.0841 312.006 47.9467C311.281 46.7673 310.918 45.293 310.918 43.5239C310.918 41.7968 311.302 40.3015 312.071 39.0378C312.839 37.732 313.885 36.6579 315.208 35.8154C316.574 34.973 318.154 34.3622 319.947 33.9831C321.783 33.5618 323.747 33.3512 325.839 33.3512C327.802 33.3512 329.638 33.5618 331.346 33.9831C333.053 34.3622 334.548 34.9519 335.828 35.7522C337.109 36.5104 338.112 37.4793 338.838 38.6587C339.564 39.796 339.927 41.0807 339.927 42.5129C339.927 42.8078 339.927 43.0816 339.927 43.3343C339.927 43.587 339.905 43.7555 339.863 43.8398H331.346V43.3343C331.346 42.5761 331.111 41.9443 330.641 41.4388C330.172 40.8912 329.489 40.47 328.592 40.1751C327.738 39.8803 326.692 39.7328 325.454 39.7328C324.6 39.7328 323.811 39.796 323.085 39.9224C322.402 40.0487 321.804 40.2383 321.292 40.491C320.78 40.7438 320.374 41.0597 320.075 41.4388C319.819 41.7758 319.691 42.197 319.691 42.7025C319.691 43.4186 319.99 44.0083 320.587 44.4716C321.228 44.8928 322.06 45.2509 323.085 45.5457C324.11 45.8406 325.241 46.1565 326.479 46.4935C328.016 46.9147 329.617 47.336 331.282 47.7572C332.989 48.1363 334.569 48.6628 336.02 49.3368C337.472 50.0108 338.646 50.9796 339.543 52.2433C340.439 53.4648 340.887 55.1287 340.887 57.2348C340.887 59.2567 340.482 60.9627 339.671 62.3527C338.902 63.7427 337.813 64.859 336.405 65.7015C334.996 66.5439 333.352 67.1547 331.474 67.5338C329.595 67.9129 327.568 68.1024 325.39 68.1024Z" fill="white"/>
<path d="M362.831 68.1024C359.159 68.1024 356.043 67.4917 353.481 66.2701C350.92 65.0064 348.977 63.0898 347.654 60.5204C346.33 57.9088 345.669 54.6442 345.669 50.7268C345.669 46.7252 346.33 43.4607 347.654 40.9333C348.977 38.3638 350.92 36.4683 353.481 35.2468C356.043 33.9831 359.159 33.3512 362.831 33.3512C366.587 33.3512 369.725 33.9831 372.244 35.2468C374.806 36.4683 376.748 38.3638 378.071 40.9333C379.395 43.4607 380.057 46.7252 380.057 50.7268C380.057 54.6442 379.395 57.9088 378.071 60.5204C376.748 63.0898 374.806 65.0064 372.244 66.2701C369.725 67.4917 366.587 68.1024 362.831 68.1024ZM362.831 61.2786C364.794 61.2786 366.353 60.9205 367.505 60.2044C368.701 59.4884 369.576 58.3932 370.131 56.9189C370.686 55.4446 370.963 53.6333 370.963 51.485V49.9686C370.963 47.8204 370.686 46.0091 370.131 44.5348C369.576 43.0605 368.701 41.9653 367.505 41.2492C366.353 40.491 364.794 40.1119 362.831 40.1119C360.909 40.1119 359.351 40.491 358.156 41.2492C357.003 41.9653 356.149 43.0605 355.594 44.5348C355.039 46.0091 354.762 47.8204 354.762 49.9686V51.485C354.762 53.6333 355.039 55.4446 355.594 56.9189C356.149 58.3932 357.003 59.4884 358.156 60.2044C359.351 60.9205 360.909 61.2786 362.831 61.2786Z" fill="white"/>
<path d="M386.606 67.3442V34.1094H393.971L394.675 38.6587H395.123C395.892 37.5635 396.81 36.6157 397.877 35.8154C398.987 35.0151 400.225 34.4043 401.591 33.9831C402.957 33.5618 404.451 33.3512 406.074 33.3512C408.294 33.3512 410.236 33.7514 411.901 34.5517C413.566 35.3521 414.847 36.6157 415.743 38.3428C416.683 40.0698 417.152 42.3234 417.152 45.1035V67.3442H408.251V46.4935C408.251 45.4404 408.123 44.5559 407.867 43.8398C407.611 43.0816 407.226 42.4708 406.714 42.0074C406.244 41.502 405.647 41.1439 404.921 40.9333C404.195 40.7227 403.384 40.6174 402.488 40.6174C401.164 40.6174 399.969 40.9333 398.902 41.5652C397.834 42.197 397.002 43.0605 396.404 44.1557C395.806 45.2509 395.508 46.5146 395.508 47.9467V67.3442H386.606Z" fill="white"/>
<path d="M180.797 96.0001C178.706 96.0001 176.934 95.6466 175.48 94.9395C174.026 94.2139 172.911 93.1255 172.134 91.6742C171.377 90.2044 170.999 88.3438 170.999 86.0925C170.999 82.7621 171.865 80.2783 173.598 78.641C175.331 77.0037 177.74 76.185 180.827 76.185C182.58 76.185 184.133 76.4548 185.487 76.9944C186.841 77.5153 187.897 78.3154 188.654 79.3945C189.43 80.455 189.819 81.7946 189.819 83.4133H186.951C186.951 82.297 186.692 81.376 186.174 80.6504C185.676 79.9248 184.969 79.3852 184.053 79.0317C183.137 78.6596 182.062 78.4735 180.827 78.4735C179.393 78.4735 178.158 78.734 177.123 79.255C176.087 79.7759 175.301 80.5853 174.763 81.683C174.225 82.7621 173.956 84.1576 173.956 85.8693V86.4554C173.956 88.1485 174.225 89.5346 174.763 90.6137C175.301 91.6742 176.077 92.4557 177.093 92.958C178.129 93.4604 179.373 93.7116 180.827 93.7116C182.102 93.7116 183.197 93.5348 184.113 93.1813C185.049 92.8278 185.766 92.2882 186.264 91.5626C186.782 90.8184 187.041 89.8881 187.041 88.7718H189.819C189.819 90.4277 189.42 91.7859 188.624 92.8464C187.847 93.9069 186.782 94.6977 185.428 95.2186C184.073 95.7396 182.53 96.0001 180.797 96.0001Z" fill="white"/>
<path d="M212.986 95.6652V80.9853H215.107L215.346 83.4133H215.555C215.715 82.9482 215.934 82.5109 216.212 82.1016C216.491 81.6737 216.87 81.3295 217.348 81.069C217.826 80.7899 218.413 80.6504 219.11 80.6504C219.409 80.6504 219.678 80.6783 219.917 80.7341C220.176 80.7713 220.365 80.8178 220.484 80.8736V83.1342H219.498C218.821 83.1342 218.234 83.2459 217.736 83.4691C217.258 83.6738 216.86 83.9715 216.541 84.3622C216.222 84.7529 215.983 85.2181 215.824 85.7576C215.685 86.2972 215.615 86.874 215.615 87.488V95.6652H212.986Z" fill="white"/>
<path d="M248.602 96.0001C247.049 96.0001 245.735 95.7303 244.659 95.1907C243.604 94.6325 242.797 93.786 242.239 92.651C241.702 91.5161 241.433 90.0742 241.433 88.3252C241.433 86.5577 241.702 85.1157 242.239 83.9994C242.797 82.8645 243.614 82.0272 244.689 81.4876C245.764 80.9295 247.109 80.6504 248.722 80.6504C250.195 80.6504 251.43 80.9202 252.426 81.4597C253.422 81.9807 254.169 82.7714 254.666 83.832C255.184 84.8739 255.443 86.1856 255.443 87.7671V88.9392H244.151C244.191 90.1114 244.37 91.0789 244.689 91.8417C245.028 92.5859 245.525 93.1348 246.183 93.4883C246.84 93.8232 247.666 93.9907 248.662 93.9907C249.339 93.9907 249.927 93.9162 250.425 93.7674C250.942 93.5999 251.37 93.3674 251.709 93.0697C252.068 92.772 252.336 92.4185 252.516 92.0091C252.695 91.5998 252.794 91.1533 252.814 90.6695H255.383C255.363 91.451 255.204 92.1766 254.905 92.8464C254.607 93.4976 254.169 94.0558 253.591 94.5209C253.013 94.9861 252.306 95.3489 251.47 95.6093C250.634 95.8698 249.678 96.0001 248.602 96.0001ZM244.211 87.0972H252.725C252.725 86.2786 252.625 85.5902 252.426 85.032C252.227 84.4738 251.938 84.018 251.56 83.6645C251.201 83.311 250.773 83.0598 250.275 82.911C249.797 82.7435 249.25 82.6598 248.632 82.6598C247.716 82.6598 246.939 82.8179 246.302 83.1342C245.665 83.4505 245.177 83.9343 244.838 84.5855C244.5 85.2367 244.291 86.0739 244.211 87.0972Z" fill="white"/>
<path d="M282.354 96.0001C281.776 96.0001 281.199 95.9349 280.621 95.8047C280.044 95.6745 279.506 95.4605 279.008 95.1628C278.51 94.8651 278.112 94.4558 277.813 93.9348C277.515 93.3953 277.365 92.7255 277.365 91.9254C277.365 90.9207 277.624 90.0928 278.142 89.4416C278.66 88.7904 279.377 88.288 280.293 87.9345C281.229 87.5624 282.334 87.3112 283.609 87.181C284.883 87.0321 286.267 86.9577 287.761 86.9577V85.2832C287.761 84.7436 287.661 84.2785 287.462 83.8878C287.263 83.4971 286.905 83.1994 286.387 82.9947C285.889 82.7714 285.172 82.6598 284.236 82.6598C283.34 82.6598 282.623 82.7714 282.085 82.9947C281.567 83.1994 281.199 83.4691 280.98 83.804C280.781 84.1389 280.681 84.5111 280.681 84.9204V85.339H278.142C278.122 85.246 278.112 85.153 278.112 85.0599C278.112 84.9669 278.112 84.8553 278.112 84.725C278.112 83.832 278.371 83.0877 278.889 82.4923C279.426 81.8784 280.173 81.4225 281.129 81.1248C282.085 80.8085 283.18 80.6504 284.415 80.6504C285.73 80.6504 286.825 80.8271 287.701 81.1806C288.597 81.5342 289.264 82.0365 289.703 82.6877C290.161 83.3389 290.39 84.1203 290.39 85.032V92.9859C290.39 93.3395 290.479 93.5906 290.659 93.7395C290.838 93.8697 291.057 93.9348 291.316 93.9348H292.481V95.5535C292.202 95.6652 291.893 95.7582 291.555 95.8326C291.216 95.9256 290.828 95.9722 290.39 95.9722C289.872 95.9722 289.444 95.8698 289.105 95.6652C288.767 95.4791 288.508 95.2186 288.328 94.8837C288.149 94.5302 288.03 94.1395 287.97 93.7116H287.761C287.402 94.1767 286.944 94.586 286.387 94.9395C285.849 95.2744 285.242 95.5349 284.565 95.721C283.887 95.907 283.151 96.0001 282.354 96.0001ZM283.011 93.9348C283.648 93.9348 284.246 93.8418 284.803 93.6558C285.381 93.4697 285.889 93.2092 286.327 92.8743C286.765 92.5208 287.114 92.1022 287.373 91.6184C287.631 91.1347 287.761 90.6044 287.761 90.0276V88.7997C286.148 88.7997 284.774 88.8834 283.638 89.0508C282.503 89.2183 281.627 89.516 281.01 89.9439C280.412 90.3718 280.113 90.9765 280.113 91.758C280.113 92.2603 280.233 92.6697 280.472 92.9859C280.711 93.3022 281.049 93.5441 281.488 93.7116C281.926 93.8604 282.434 93.9348 283.011 93.9348Z" fill="white"/>
<path d="M318.079 96.0001C317.263 96.0001 316.625 95.8605 316.167 95.5814C315.709 95.2837 315.381 94.9023 315.182 94.4372C314.982 93.9534 314.883 93.4418 314.883 92.9022V83.0505H312.852V80.9853H314.943L315.421 76.8827H317.512V80.9853H320.469V83.0505H317.512V92.5394C317.512 93.0046 317.601 93.3581 317.781 93.5999C317.96 93.8232 318.298 93.9348 318.796 93.9348H320.469V95.5535C320.27 95.6466 320.031 95.721 319.752 95.7768C319.473 95.8326 319.185 95.8791 318.886 95.9163C318.607 95.9722 318.338 96.0001 318.079 96.0001Z" fill="white"/>
<path d="M342.989 78.2223V75.4873H345.618V78.2223H342.989ZM342.989 95.6652V80.9853H345.618V95.6652H342.989Z" fill="white"/>
<path d="M373.567 95.6652L367.742 80.9853H370.49L373.358 88.3252C373.498 88.6787 373.657 89.1253 373.836 89.6648C374.015 90.1858 374.195 90.7254 374.374 91.2835C374.573 91.8231 374.732 92.3068 374.852 92.7348H375.001C375.141 92.3254 375.3 91.851 375.479 91.3114C375.658 90.7533 375.838 90.2137 376.017 89.6927C376.216 89.1532 376.385 88.6973 376.525 88.3252L379.363 80.9853H382.021L376.196 95.6652H373.567Z" fill="white"/>
<path d="M410.311 96.0001C408.758 96.0001 407.443 95.7303 406.368 95.1907C405.313 94.6325 404.506 93.786 403.948 92.651C403.411 91.5161 403.142 90.0742 403.142 88.3252C403.142 86.5577 403.411 85.1157 403.948 83.9994C404.506 82.8645 405.323 82.0272 406.398 81.4876C407.473 80.9295 408.818 80.6504 410.431 80.6504C411.904 80.6504 413.139 80.9202 414.135 81.4597C415.131 81.9807 415.878 82.7714 416.375 83.832C416.893 84.8739 417.152 86.1856 417.152 87.7671V88.9392H405.86C405.9 90.1114 406.079 91.0789 406.398 91.8417C406.737 92.5859 407.234 93.1348 407.892 93.4883C408.549 93.8232 409.375 93.9907 410.371 93.9907C411.048 93.9907 411.636 93.9162 412.133 93.7674C412.651 93.5999 413.079 93.3674 413.418 93.0697C413.776 92.772 414.045 92.4185 414.225 92.0091C414.404 91.5998 414.503 91.1533 414.523 90.6695H417.092C417.072 91.451 416.913 92.1766 416.614 92.8464C416.316 93.4976 415.878 94.0558 415.3 94.5209C414.722 94.9861 414.015 95.3489 413.179 95.6093C412.343 95.8698 411.387 96.0001 410.311 96.0001ZM405.92 87.0972H414.434C414.434 86.2786 414.334 85.5902 414.135 85.032C413.936 84.4738 413.647 84.018 413.269 83.6645C412.91 83.311 412.482 83.0598 411.984 82.911C411.506 82.7435 410.959 82.6598 410.341 82.6598C409.425 82.6598 408.648 82.8179 408.011 83.1342C407.374 83.4505 406.886 83.9343 406.547 84.5855C406.209 85.2367 406 86.0739 405.92 87.0972Z" fill="white"/>
</svg>
